<svg width="94" height="94" viewBox="0 0 94 94" fill="none" xmlns="http://www.w3.org/2000/svg">
<g clip-path="url(#clip0)">
<path d="M47.1155 0C21.1993 0 0.116211 21.0831 0.116211 47.0001C0.116211 72.9163 21.1993 94.0002 47.1155 94.0002C73.0309 94.0002 94.114 72.9163 94.114 47.0001C94.114 21.0831 73.0309 0 47.1155 0Z" fill="#27AE60"/>
<path d="M61.1001 36.3198L41.6878 55.3642L32.8999 46.7431C32.4653 46.3167 31.7611 46.3167 31.326 46.7431C30.8913 47.1695 30.8913 47.8604 31.326 48.2872L40.9009 57.6804C41.1182 57.8936 41.403 58 41.6878 58C41.9727 58 42.2575 57.8936 42.4748 57.6804L62.674 37.8639C63.1087 37.4376 63.1087 36.7462 62.674 36.3198C62.2394 35.8934 61.5347 35.8934 61.1001 36.3198Z" fill="white"/>
</g>
<defs>
<clipPath id="clip0">
<rect width="94" height="94" fill="white"/>
</clipPath>
</defs>
</svg>
