<svg width="30" height="30" viewBox="0 0 30 30" fill="none" xmlns="http://www.w3.org/2000/svg">
<path d="M4.029 0.246094H4.02549C2.95551 0.246094 1.94647 0.662107 1.18499 1.41708C0.420994 2.17411 4.84443e-07 3.17858 4.84443e-07 4.24556C-0.000526856 5.33604 0.42949 6.35803 1.20849 7.12203C1.96399 7.86201 2.99448 8.27755 3.99349 8.25353C4.0225 8.25405 4.0515 8.25452 4.08097 8.25452C5.08245 8.25452 6.07397 7.84654 6.81248 7.12654C7.59095 6.36805 8.02097 5.35005 8.02349 4.26004C8.02601 3.19405 7.609 2.18806 6.85051 1.42658C6.09248 0.666091 5.09048 0.24709 4.029 0.246094Z" fill="#171248"/>
<path d="M6.00015 9.25439H1.95767C1.15417 9.25439 0.500153 9.92886 0.500153 10.7574V28.2542C0.500153 29.0652 1.18716 29.7503 2.00015 29.7503H6.00015C6.81313 29.7503 7.50014 29.0788 7.50014 28.2848V10.7544C7.50014 9.9414 6.81319 9.25439 6.00015 9.25439Z" fill="#171248"/>
<path d="M23.065 8.75488H22.0115C20.07 8.75488 18.2075 9.58187 17 10.9479V10.2549C17 9.75935 16.495 9.25486 16 9.25486H11C10.5376 9.25486 10 9.66484 10 10.1934V28.8497C10 29.3802 10.527 29.7502 11 29.7507L16.5 29.7522C16.9731 29.7522 17.5001 29.3822 17.5001 28.8512V18.0728C17.5001 16.4468 18.7056 15.1593 20.2445 15.1419C21.027 15.1243 21.7665 15.4328 22.32 15.9874C22.7775 16.4449 23 17.1128 23 18.0299V28.7548C23 29.2503 23.505 29.7548 24 29.7548H29C29.495 29.7548 30 29.2503 30 28.7548V15.8498C30 11.8713 26.9535 8.75488 23.065 8.75488Z" fill="#171248"/>
</svg>
