<svg width="216" height="36" viewBox="0 0 216 36" fill="none" xmlns="http://www.w3.org/2000/svg">
<path d="M19.24 15.22H12.58V35.42H6.66V15.22H0V9.51999H19.24V15.22Z" fill="#171248"/>
<path d="M76.07 26.91H73.26V35.42H67.34V9.53H77.7C82.62 9.53 86.58 13.49 86.58 18.41C86.58 21.59 84.66 24.48 81.81 25.92L87.32 35.43H80.96L76.07 26.91ZM73.26 21.73H77.7C79.33 21.73 80.66 20.29 80.66 18.4C80.66 16.51 79.33 15.07 77.7 15.07H73.26V21.73Z" fill="#171248"/>
<path d="M126.46 23.21C126.46 31.13 120.95 35.93 113.7 35.93C105.56 35.93 99.72 29.94 99.72 22.5C99.72 14.99 105.68 9 113.3 9C118.26 9 122.44 11.44 124.62 14.92L119.59 17.8C118.52 16.1 116.19 14.77 113.26 14.77C108.9 14.77 105.64 17.99 105.64 22.54C105.64 26.94 108.75 30.16 113.78 30.16C117.22 30.16 119.48 28.64 120.4 26.16H113.48V20.98H126.46V23.21Z" fill="#171248"/>
<path d="M157.17 29.73V35.43H140.89V9.53H156.98V15.23H146.81V19.52H157.17V25.14H146.81V29.73H157.17Z" fill="#171248"/>
<path d="M41.44 9.53L28.86 35.42H35.33H36.63L41.44 25.52L46.25 35.42H47.54H54.01L41.44 9.53Z" fill="#ED1C24"/>
<path d="M183.384 16.992C183.384 15.52 182.52 14.56 181.032 14.256C182.264 13.888 182.968 13.008 182.968 11.728C182.968 9.936 181.624 8.8 179.448 8.8H174.264V20H179.832C182.024 20 183.384 18.848 183.384 16.992ZM178.776 10.816C180.056 10.816 180.552 11.2 180.552 12.048C180.552 12.896 180.04 13.312 178.776 13.312H176.6V10.816H178.776ZM180.936 16.656C180.936 17.568 180.424 17.984 179.16 17.984H176.6V15.296H179.16C180.424 15.296 180.936 15.744 180.936 16.656ZM188.143 17.872V15.408H193.487V13.296H188.143V10.928H193.871V8.8H185.791V20H194.031V17.872H188.143ZM199.031 20H201.383V10.992H204.727V8.8H195.671V10.992H199.031V20ZM213.075 20H215.555L211.219 8.8H208.499L204.179 20H206.659L207.555 17.552H212.179L213.075 20ZM208.275 15.552L209.875 11.168L211.459 15.552H208.275Z" fill="#171248"/>
</svg>
