<svg width="30" height="24" viewBox="0 0 30 24" fill="none" xmlns="http://www.w3.org/2000/svg">
<path d="M26.2653 23.4371C28.3258 23.4371 30 21.7629 30 19.7024V4.29766C30 2.23715 28.3258 0.562988 26.2653 0.562988H3.73467C1.67416 0.562988 0 2.23715 0 4.29766V19.6963C0 21.7568 1.67416 23.4309 3.73467 23.4309H26.2653V23.4371ZM3.82052 5.76331C3.43418 5.43216 3.38512 4.85571 3.71627 4.46937C4.04742 4.08302 4.62388 4.03396 5.01022 4.36511L15 12.8402L24.9959 4.35898C25.3823 4.02783 25.9648 4.07689 26.2899 4.46323C26.621 4.84958 26.572 5.43216 26.1856 5.75718L19.0536 11.8161L26.2224 18.5618C26.5904 18.9113 26.6087 19.4939 26.2592 19.8618C26.0752 20.0519 25.8361 20.1501 25.5908 20.1501C25.3639 20.1501 25.137 20.0642 24.9591 19.8986L17.6431 13.018L15.601 14.7535C15.4293 14.9007 15.2146 14.9743 15.0061 14.9743C14.7915 14.9743 14.583 14.9007 14.4113 14.7535L12.363 13.018L5.04702 19.9048C4.86917 20.0703 4.64227 20.1562 4.41537 20.1562C4.17007 20.1562 3.92478 20.0581 3.74693 19.868C3.39738 19.5 3.41578 18.9174 3.78373 18.5679L10.9526 11.8161L3.82052 5.76331Z" fill="#171248"/>
</svg>
