<svg width="692" height="450" viewBox="0 0 692 450" fill="none" xmlns="http://www.w3.org/2000/svg">
<circle cx="346" cy="225" r="220" stroke="#ED1C24" stroke-width="10"/>
<rect y="175" width="692" height="101" fill="white"/>
<path d="M64.2141 242H72.0441V217.745H80.9541V210.5H55.3041V217.745H64.2141V242ZM95.4241 218.96V222.065C94.1191 219.68 91.4191 218.33 88.3141 218.33C82.4191 218.33 78.1441 223.325 78.1441 230.48C78.1441 237.635 82.4191 242.63 88.3141 242.63C91.4191 242.63 94.1191 241.28 95.4241 238.895V242H102.804V218.96H95.4241ZM95.5141 230.48C95.5141 233.765 93.6691 235.88 90.6541 235.88C87.6391 235.88 85.7941 233.765 85.7941 230.48C85.7941 227.195 87.6391 225.08 90.6541 225.08C93.6691 225.08 95.5141 227.195 95.5141 230.48ZM106.885 242H114.445V209.06H106.885V242ZM140.643 232.685C140.733 231.92 140.778 231.155 140.778 230.435C140.778 223.1 136.233 218.33 129.303 218.33C122.148 218.33 117.378 223.37 117.378 230.615C117.378 237.995 122.373 242.63 130.068 242.63C134.253 242.63 137.673 241.28 139.833 238.805L135.738 234.305C134.343 235.655 132.543 236.33 130.338 236.33C127.458 236.33 125.703 235.205 125.028 232.685H140.643ZM124.938 228.095C125.433 225.755 126.873 224.585 129.348 224.585C131.823 224.585 133.128 225.755 133.308 228.095H124.938ZM165.845 226.79C165.845 221.435 162.875 218.33 158.06 218.33C154.82 218.33 152.3 219.77 150.995 222.065V218.96H143.615V242H151.175V229.31C151.175 226.565 152.435 225.17 154.955 225.17C157.25 225.17 158.285 226.385 158.285 228.77V242H165.845V226.79ZM171.676 234.305C171.676 240.065 174.106 242.315 180.181 242.315C181.936 242.315 183.556 242.09 184.996 241.685V235.25C184.051 235.475 183.106 235.565 182.116 235.565C179.956 235.565 179.236 234.935 179.236 233V225.62H184.906V218.96H179.236V212.21H171.676V218.96H167.716V225.62H171.676V234.305Z" fill="#171248"/>
<path d="M480.006 234.935V229.58H494.271V222.605H480.006V217.565H495.441V210.5H472.221V242H495.891V234.935H480.006ZM535.61 226.79C535.61 221.435 532.685 218.33 527.96 218.33C524.54 218.33 521.66 219.95 520.445 222.47C519.365 219.815 516.845 218.33 513.74 218.33C510.68 218.33 508.07 219.77 506.81 222.065V218.96H499.43V242H506.99V229.22C506.99 226.565 508.295 225.17 510.635 225.17C512.795 225.17 513.74 226.34 513.74 228.68V242H521.3V229.22C521.3 226.565 522.605 225.17 524.945 225.17C527.105 225.17 528.05 226.34 528.05 228.68V242H535.61V226.79ZM564.186 230.48C564.186 223.325 559.911 218.33 554.016 218.33C550.911 218.33 548.211 219.68 546.906 222.065V218.96H539.526V251H547.086V239.165C548.481 241.37 551.091 242.63 554.016 242.63C559.911 242.63 564.186 237.635 564.186 230.48ZM556.536 230.48C556.536 233.765 554.691 235.88 551.676 235.88C548.661 235.88 546.816 233.765 546.816 230.48C546.816 227.195 548.661 225.08 551.676 225.08C554.691 225.08 556.536 227.195 556.536 230.48ZM567.097 242H574.657V209.06H567.097V242ZM577.59 230.48C577.59 237.365 582.585 242.63 590.1 242.63C597.615 242.63 602.61 237.365 602.61 230.48C602.61 223.595 597.615 218.33 590.1 218.33C582.585 218.33 577.59 223.595 577.59 230.48ZM594.96 230.48C594.96 233.765 593.115 235.88 590.1 235.88C587.085 235.88 585.24 233.765 585.24 230.48C585.24 227.195 587.085 225.08 590.1 225.08C593.115 225.08 594.96 227.195 594.96 230.48ZM619.536 218.96V230.57C619.536 233.315 618.321 234.71 615.891 234.71C613.731 234.71 612.696 233.495 612.696 231.11V218.96H605.136V233.09C605.136 238.445 608.106 241.55 612.786 241.55C615.846 241.55 618.321 240.155 619.626 237.95V239.57C619.626 242.99 617.421 245.06 613.686 245.06C611.526 245.06 609.096 244.34 607.161 243.08L604.281 248.75C606.576 250.595 610.266 251.63 614.271 251.63C622.506 251.63 627.006 247.31 627.006 239.57V218.96H619.536ZM653.185 232.685C653.275 231.92 653.32 231.155 653.32 230.435C653.32 223.1 648.775 218.33 641.845 218.33C634.69 218.33 629.92 223.37 629.92 230.615C629.92 237.995 634.915 242.63 642.61 242.63C646.795 242.63 650.215 241.28 652.375 238.805L648.28 234.305C646.885 235.655 645.085 236.33 642.88 236.33C640 236.33 638.245 235.205 637.57 232.685H653.185ZM637.48 228.095C637.975 225.755 639.415 224.585 641.89 224.585C644.365 224.585 645.67 225.755 645.85 228.095H637.48ZM671.952 218.78C671.367 218.6 670.737 218.51 670.062 218.51C667.137 218.51 664.752 219.995 663.537 222.47V218.96H656.157V242H663.717V231.155C663.717 227.24 665.157 225.8 668.802 225.8C669.882 225.8 670.917 225.89 671.952 226.115V218.78Z" fill="#171248"/>
<path d="M347.01 160L283 290H315.921H322.535L347.01 240.29L371.484 290H378.048H410.969L347.01 160Z" fill="#ED1C24"/>
</svg>
