<svg width="30" height="26" viewBox="0 0 30 26" fill="none" xmlns="http://www.w3.org/2000/svg">
<path d="M30 3.6998C28.9 4.1998 27.7 4.4998 26.5 4.6998C27.8 3.8998 28.7 2.6998 29.2 1.2998C28 1.9998 26.7 2.4998 25.3 2.7998C24.1 1.4998 22.5 0.799805 20.8 0.799805C17.4 0.799805 14.6 3.5998 14.6 6.9998C14.6 7.4998 14.7 7.9998 14.8 8.3998C9.7 8.0998 5.09999 5.6998 2.09999 1.8998C1.59999 2.7998 1.29999 3.8998 1.29999 4.9998C1.29999 7.0998 2.39999 8.9998 3.99999 10.0998C2.99999 10.0998 1.99999 9.7998 1.19999 9.39981V9.4998C1.19999 12.4998 3.29999 14.9998 6.09999 15.4998C5.59999 15.5998 4.99999 15.6998 4.49999 15.6998C4.09999 15.6998 3.69999 15.6998 3.29999 15.5998C4.09999 17.9998 6.39999 19.7998 8.99999 19.8998C6.89999 21.5998 4.19999 22.4998 1.39999 22.4998C0.899994 22.4998 0.399994 22.4998 -0.100006 22.3998C2.59999 24.0998 5.89999 25.1998 9.29999 25.1998C20.6 25.1998 26.8 15.7998 26.8 7.6998C26.8 7.3998 26.8 7.1998 26.8 6.8998C28.1 5.9998 29.2 4.89981 30 3.6998Z" fill="#171248"/>
</svg>
